<svg width="17" height="21" viewBox="0 0 17 21" fill="none" xmlns="http://www.w3.org/2000/svg">
<path d="M9 5.54148C8.8374 5.5142 8.6704 5.5 8.5 5.5C6.8431 5.5 5.5 6.84315 5.5 8.5C5.5 10.1569 6.8431 11.5 8.5 11.5C10.1569 11.5 11.5 10.1569 11.5 8.5C11.5 8.32964 11.4858 8.1626 11.4585 8" stroke="#03B6D7" stroke-linecap="round"/>
<path d="M1.5 13.7161C0.85254 12.0622 0.5 10.3013 0.5 8.64331C0.5 4.14588 4.08172 0.5 8.50001 0.5C12.9183 0.5 16.5 4.14588 16.5 8.64331C16.5 13.1055 13.9467 18.3124 9.96291 20.1744C9.03431 20.6085 7.96571 20.6085 7.03711 20.1744C5.76475 19.5797 4.63831 18.6439 3.69438 17.5" stroke="#03B6D7" stroke-linecap="round"/>
</svg>
